<?xml version="1.0" standalone="no"?><!DOCTYPE svg PUBLIC "-//W3C//DTD SVG 1.1//EN" "http://www.w3.org/Graphics/SVG/1.1/DTD/svg11.dtd"><svg t="1731056771479" class="icon" viewBox="0 0 1024 1024" version="1.1" xmlns="http://www.w3.org/2000/svg" p-id="1351" xmlns:xlink="http://www.w3.org/1999/xlink" width="200" height="200"><path d="M783.49647 1004.320038L323.719368 934.582175c-40.245921-6.103988-67.923867-43.679915-61.81988-83.925836l117.121772-772.172492c6.103988-40.245921 43.679915-67.923867 83.925836-61.81988l459.777102 69.737864c40.245921 6.103988 67.923867 43.679915 61.819879 83.925836l-117.121771 772.172492c-6.103988 40.247921-43.677915 67.925867-83.925836 61.819879z" fill="#e6e6e6" p-id="1352"></path><path d="M379.02326 78.485847l-117.121772 772.170492c-6.103988 40.245921 21.571958 77.821848 61.81988 83.925836l402.611213 61.06588V82.03984c0-9.211982-1.703997-18.021965-4.79199-26.151949L462.949096 16.665967c-40.247921-6.103988-77.821848 21.573958-83.925836 61.81988z" fill="#dbdbdb" p-id="1353"></path><path d="M772.812491 964.744116l-427.151166-64.789874c-24.881951-3.773993-41.993918-27.003947-38.219925-51.887898l113.411778-747.71054c3.773993-24.881951 27.003947-41.993918 51.887899-38.219925l427.153165 64.789873c24.881951 3.773993 41.993918 27.003947 38.219926 51.887899l-113.413779 747.710539c-3.773993 24.881951-27.005947 41.993918-51.887898 38.219926z" fill="#88147f" p-id="1354"></path><path d="M726.99058 957.69213V100.601804L473.397075 62.135879c-24.881951-3.773993-48.113906 13.337974-51.887898 38.219925l-113.411779 747.71054c-3.773993 24.881951 13.337974 48.113906 38.219926 51.887898l380.673256 57.737888z" fill="#84107b" p-id="1355"></path><path d="M572.260882 482.799057m-286.979439 0a286.979439 286.979439 0 1 0 573.958879 0 286.979439 286.979439 0 1 0-573.958879 0Z" fill="#FF7955" p-id="1356"></path><path d="M726.99058 241.065529c-44.647913-28.637944-97.749809-45.245912-154.729698-45.245911-65.501872 0-125.863754 21.959957-174.16366 58.899885l-59.803883 394.275229c52.015898 73.089857 137.423732 120.765764 233.967543 120.765765 56.981889 0 110.081785-16.607968 154.729698-45.245912V241.065529z" fill="#F44D4D" p-id="1357"></path><path d="M574.440878 484.959053m-202.899604 0a202.899604 202.899604 0 1 0 405.799208 0 202.899604 202.899604 0 1 0-405.799208 0Z" fill="#FFCF65" p-id="1358"></path><path d="M726.99058 351.215314c-37.185927-42.381917-91.743821-69.145865-152.557702-69.145865-112.053781 0-202.893604 90.837823-202.893604 202.893604 0 112.053781 90.837823 202.893604 202.893604 202.893604 60.813881 0 115.371775-26.763948 152.557702-69.145865V351.215314z" fill="#FFB864" p-id="1359"></path><path d="M565.110896 692.576647l-174.835658-287.313439c-3.857992-6.337988 0.705999-14.455972 8.125984-14.455971h349.669317c7.419986 0 11.981977 8.117984 8.125984 14.455971l-174.835658 287.313439c-3.703993 6.089988-12.543976 6.089988-16.249969 0z" fill="#FF554D" p-id="1360"></path><path d="M390.277238 405.265208l171.723664 282.199449c4.113992 0.25 8.255984 0.389999 12.431976 0.39 3.339993 0 6.657987-0.094 9.957981-0.254l142.599721-234.339542v-62.453878H398.403222a9.419982 9.419982 0 0 0-4.255992 1.009998 201.489606 201.489606 0 0 0-5.04199 10.467979c0.214 1.009998 0.583999 2.015996 1.171998 2.979994z" fill="#ED4A4A" p-id="1361"></path><path d="M577.346872 1008.184031H112.311781c-40.70592 0-73.705856-32.999936-73.705856-73.705856V153.4737c0-40.70592 32.999936-73.705856 73.705856-73.705856h465.035091c40.70592 0 73.705856 32.999936 73.705856 73.705856V934.478175c0 40.70592-32.999936 73.705856-73.705856 73.705856z" fill="#e6e6e6" p-id="1362"></path><path d="M566.554893 961.744122H114.767776c-18.749963 0-33.947934-15.19997-33.947934-33.947934V154.297699c0-18.749963 15.19997-33.947934 33.947934-33.947934h451.787117c18.749963 0 33.947934 15.19997 33.947934 33.947934v773.496489c0.002 18.749963-15.19797 33.949934-33.947934 33.949934z" fill="#88147f" p-id="1363"></path><path d="M335.035346 300.595413L124.025758 649.282732c-4.615991 7.629985 0.875998 17.373966 9.793981 17.373966h422.017175c8.917983 0 14.411972-9.745981 9.793981-17.373966L354.623307 300.595413c-4.453991-7.361986-15.13397-7.361986-19.587961 0z" fill="#FF7955" p-id="1364"></path><path d="M335.039346 787.362462L125.057756 440.845139c-4.623991-7.629985 0.869998-17.379966 9.789981-17.379966h419.963179c8.919983 0 14.413972 9.751981 9.789981 17.379966L354.619307 787.362462c-4.455991 7.353986-15.12397 7.353986-19.579961 0z" fill="#FF915A" p-id="1365"></path><path d="M187.669633 544.140937l74.241855 122.517761h165.869676l74.241855-122.517761-73.025857-120.675764h-168.299671z" fill="#FFB864" p-id="1366"></path><path d="M344.821327 543.758938m-40.279922 0a40.279921 40.279921 0 1 0 80.559843 0 40.279921 40.279921 0 1 0-80.559843 0Z" fill="#ffffff" p-id="1367"></path><path d="M983.750079 106.183793c-14.181972-19.251962-35.013932-31.829938-58.653886-35.413931a15.805969 15.805969 0 0 0-18.007965 13.265974 15.813969 15.813969 0 0 0 13.263974 18.005965c15.28997 2.317995 28.759944 10.45198 37.931926 22.901955 9.169982 12.449976 12.943975 27.725946 10.62598 43.013916l-117.123772 772.172492c-2.317995 15.28997-10.45198 28.759944-22.901955 37.929926-12.449976 9.173982-27.733946 12.951975-43.013916 10.625979l-126.167753-19.135963a88.989826 88.989826 0 0 0 7.163986-35.071931v-163.98968c57.469888-18.939963 108.959787-55.473892 145.953714-103.799797 40.70992-53.173896 62.225878-116.763772 62.225879-183.897641s-21.515958-130.723745-62.225879-183.897641c-36.995928-48.327906-88.483827-84.859834-145.953714-103.799797v-41.619919c0-49.361904-40.159922-89.521825-89.521826-89.521825h-177.399653a57.613887 57.613887 0 0 1 17.613965-21.023959c12.449976-9.171982 27.739946-12.941975 43.013916-10.625979l380.423257 57.701887c8.619983 1.299997 16.697967-4.627991 18.007965-13.263974s-4.629991-16.697967-13.263974-18.007965L465.319091 1.031998c-23.641954-3.585993-47.263908 2.245996-66.51787 16.429968-15.873969 11.691977-27.193947 27.909945-32.691936 46.491909H112.311781c-49.361904 0-89.521825 40.159922-89.521826 89.521825v212.619585a15.813969 15.813969 0 1 0 31.627939 0V153.4737c0-31.921938 25.969949-57.891887 57.891887-57.891887h465.035091c31.921938 0 57.891887 25.969949 57.891887 57.891887v781.002475c0 31.921938-25.969949 57.891887-57.891887 57.891887H112.311781c-31.921938 0-57.891887-25.967949-57.891887-57.891887V445.59113a15.813969 15.813969 0 1 0-31.627939 0V934.478175c0 49.361904 40.159922 89.521825 89.521826 89.521825h465.035091c24.277953 0 46.31591-9.727981 62.459878-25.47595l141.319724 21.433958a90.779823 90.779823 0 0 0 13.615974 1.031998c18.955963 0 37.353927-6.007988 52.901896-17.461966 19.251962-14.179972 31.829938-35.011932 35.413931-58.651885l117.119772-772.174492c3.585993-23.641954-2.247996-47.265908-16.429968-66.51787zM666.866698 322.271371c23.593954 13.363974 43.633915 31.409939 59.099884 52.719897h-59.099884v-52.719897z m0 84.349835h69.993863l-69.993863 115.021775v-115.021775z m120.839764-88.503827c36.445929 47.607907 55.709891 104.551796 55.709891 164.673678s-19.263962 117.063771-55.709891 164.669678c-31.007939 40.505921-73.373857 71.75186-120.839764 89.497826v-154.469699l88.479827-145.401716a188.393632 188.393632 0 0 1 6.163988 47.873907 186.893635 186.893635 0 0 1-46.39991 123.325759 15.813969 15.813969 0 0 0 23.775954 20.859959 218.503573 218.503573 0 0 0 54.253894-144.185718c0-85.685833-49.229904-162.369683-126.273753-198.241613v-58.099887c47.467907 17.747965 89.831825 48.993904 120.839764 89.497826z" p-id="1368"></path><path d="M109.193787 668.540694a27.319947 27.319947 0 0 0 23.781953 13.907973h119.695767l68.847865 113.141779c4.99199 8.203984 13.705973 13.099974 23.307955 13.099975 9.603981 0 18.317964-4.89599 23.309954-13.099975l68.849866-113.141779h119.695766c9.843981 0 18.955963-5.32999 23.779953-13.907973a27.313947 27.313947 0 0 0-0.465999-27.543946l-58.851885-96.847811 57.815887-95.009814a27.309947 27.309947 0 0 0 0.473999-27.551946 27.313947 27.313947 0 0 0-23.781953-13.913973h-117.441771l-70.063863-115.297775c-4.99199-8.211984-13.709973-13.115974-23.319954-13.113974-9.607981 0-18.325964 4.90399-23.313955 13.115974h0.002l-70.065863 115.295775h-117.439771a27.313947 27.313947 0 0 0-23.783953 13.915973 27.313947 27.313947 0 0 0 0.475999 27.551946l57.813887 95.007814-58.853885 96.845811a27.313947 27.313947 0 0 0-0.467999 27.545946z m235.63554 104.511796l-55.131893-90.601823h110.265785l-55.133892 90.601823z m-74.379855-122.231761l-64.917873-106.681792 63.707875-104.835795h151.179705l63.707875 104.835795-64.917873 106.681792h-148.759709z m278.505456 0h-92.721819l46.391909-76.239851 46.32991 76.239851z m-1.033998-211.519587l-45.275912 74.403855-45.213911-74.403855h90.489823z m-203.091603-124.389757l56.369889 92.759819h-112.737779l56.36789-92.759819zM141.737723 439.301142h90.489823l-45.213911 74.401855-45.275912-74.401855z m45.293912 135.279736l46.391909 76.239851H140.701725l46.32991-76.239851z" p-id="1369"></path><path d="M344.829327 487.665048c-30.92994 0-56.09189 25.161951-56.091891 56.09189 0 30.92794 25.161951 56.08989 56.091891 56.08989 30.92794 0 56.08989-25.161951 56.08989-56.08989 0-30.92994-25.161951-56.09189-56.08989-56.09189z m0 80.549842c-13.487974 0-24.461952-10.971979-24.461953-24.459952 0-13.487974 10.973979-24.461952 24.461953-24.461952s24.459952 10.973979 24.459952 24.461952c0 13.489974-10.971979 24.459952-24.459952 24.459952z" p-id="1370"></path></svg>